<svg width="36" height="36" viewBox="0 0 36 36" fill="none" xmlns="http://www.w3.org/2000/svg">
<path d="M24.6667 21.28V23.28C24.6674 23.4657 24.6294 23.6495 24.555 23.8196C24.4806 23.9897 24.3715 24.1424 24.2347 24.2679C24.0979 24.3934 23.9364 24.489 23.7605 24.5485C23.5846 24.608 23.3983 24.6301 23.2133 24.6133C21.1619 24.3904 19.1913 23.6894 17.46 22.5667C15.8492 21.5431 14.4836 20.1775 13.46 18.5667C12.3333 16.8275 11.6322 14.8473 11.4133 12.7867C11.3967 12.6023 11.4186 12.4165 11.4777 12.2411C11.5368 12.0657 11.6317 11.9045 11.7565 11.7678C11.8813 11.631 12.0332 11.5218 12.2025 11.447C12.3719 11.3722 12.5549 11.3335 12.74 11.3333H14.74C15.0635 11.3302 15.3772 11.4447 15.6225 11.6557C15.8678 11.8667 16.0281 12.1596 16.0733 12.48C16.1578 13.1201 16.3143 13.7485 16.54 14.3533C16.6297 14.592 16.6491 14.8513 16.5959 15.1006C16.5428 15.3499 16.4192 15.5788 16.24 15.76L15.3933 16.6067C16.3424 18.2757 17.7243 19.6576 19.3933 20.6067L20.24 19.76C20.4213 19.5808 20.6501 19.4572 20.8994 19.4041C21.1487 19.3509 21.4081 19.3703 21.6467 19.46C22.2515 19.6857 22.88 19.8423 23.52 19.9267C23.8439 19.9724 24.1396 20.1355 24.351 20.385C24.5624 20.6345 24.6748 20.9531 24.6667 21.28Z" stroke="#364153" stroke-width="1.33333" stroke-linecap="round" stroke-linejoin="round"/>
</svg>
